<svg width="873" height="393" viewBox="0 0 873 393" fill="none" xmlns="http://www.w3.org/2000/svg">
<path d="M0.199219 5.4082H201.371C230.668 5.4082 256.059 8.58203 277.543 14.9297C299.027 21.2773 316.85 30.4733 331.01 42.5176C345.17 54.3991 355.668 68.9661 362.504 86.2188C369.503 103.471 373.002 122.921 373.002 144.568C373.002 164.913 369.584 183.712 362.748 200.965C355.912 218.217 345.414 233.191 331.254 245.887C317.257 258.419 299.516 268.266 278.031 275.428C256.547 282.426 231.156 285.926 201.859 285.926L77.5918 285.682V387H0.199219V5.4082ZM203.324 218.787C217.973 218.787 230.749 217.078 241.654 213.66C252.722 210.079 261.918 205.115 269.242 198.768C276.729 192.257 282.263 184.445 285.844 175.33C289.587 166.053 291.459 155.799 291.459 144.568C291.459 121.945 284.053 104.367 269.242 91.834C254.594 79.1387 232.621 72.791 203.324 72.791H77.5918V218.787H203.324ZM475.541 273.475C489.376 281.287 503.373 288.367 517.533 294.715C531.856 300.9 546.667 306.189 561.967 310.584C577.266 314.816 593.298 318.071 610.062 320.35C626.99 322.628 644.975 323.768 664.018 323.768C686.967 323.768 706.498 322.303 722.611 319.373C738.725 316.281 751.827 312.13 761.918 306.922C772.172 301.551 779.577 295.203 784.135 287.879C788.855 280.555 791.215 272.579 791.215 263.953C791.215 250.118 785.437 239.214 773.881 231.238C762.325 223.1 744.503 219.031 720.414 219.031C709.835 219.031 698.686 219.764 686.967 221.229C675.248 222.531 663.367 223.995 651.322 225.623C639.441 227.251 627.641 228.797 615.922 230.262C604.366 231.564 593.461 232.215 583.207 232.215C566.117 232.215 549.678 230.018 533.891 225.623C518.266 221.229 504.35 214.637 492.143 205.848C480.098 197.059 470.495 186.072 463.334 172.889C456.173 159.705 452.592 144.324 452.592 126.746C452.592 116.329 453.975 105.994 456.742 95.7402C459.672 85.4863 464.229 75.7207 470.414 66.4434C476.762 57.0033 484.9 48.2956 494.828 40.3203C504.757 32.1823 516.719 25.1836 530.717 19.3242C544.877 13.4648 561.153 8.90755 579.545 5.65234C598.1 2.23438 619.177 0.525391 642.777 0.525391C659.867 0.525391 677.038 1.50195 694.291 3.45508C711.544 5.24544 728.308 7.84961 744.584 11.2676C761.023 14.6855 776.811 18.8359 791.947 23.7188C807.084 28.4388 821.163 33.7285 834.184 39.5879L800.248 102.088C789.506 97.3678 777.95 93.0547 765.58 89.1484C753.21 85.0794 740.271 81.5801 726.762 78.6504C713.253 75.7207 699.255 73.4421 684.77 71.8145C670.447 70.0241 655.798 69.1289 640.824 69.1289C619.503 69.1289 601.924 70.6751 588.09 73.7676C574.418 76.86 563.513 80.8477 555.375 85.7305C547.237 90.4505 541.54 95.8216 538.285 101.844C535.193 107.703 533.646 113.562 533.646 119.422C533.646 130.815 538.773 140.174 549.027 147.498C559.281 154.66 574.906 158.24 595.902 158.24C604.366 158.24 614.05 157.671 624.955 156.531C636.023 155.229 647.579 153.846 659.623 152.381C671.83 150.916 684.2 149.614 696.732 148.475C709.428 147.173 721.716 146.521 733.598 146.521C756.059 146.521 775.915 149.044 793.168 154.09C810.583 159.135 825.15 166.378 836.869 175.818C848.588 185.096 857.458 196.408 863.48 209.754C869.503 222.938 872.514 237.749 872.514 254.188C872.514 276.16 867.387 295.773 857.133 313.025C847.042 330.115 832.556 344.601 813.676 356.482C794.958 368.201 772.335 377.153 745.805 383.338C719.275 389.36 689.734 392.371 657.182 392.371C635.697 392.371 614.701 390.988 594.193 388.221C573.686 385.617 553.992 381.873 535.111 376.99C516.394 371.945 498.49 366.004 481.4 359.168C464.473 352.169 448.767 344.52 434.281 336.219L475.541 273.475Z" fill="white"/>
</svg>
